<?xml version="1.0" standalone="no"?>
<!DOCTYPE svg PUBLIC "-//W3C//DTD SVG 20010904//EN"
 "http://www.w3.org/TR/2001/REC-SVG-20010904/DTD/svg10.dtd">
<svg version="1.0" xmlns="http://www.w3.org/2000/svg"
 width="700.000000pt" height="700.000000pt" viewBox="0 0 700.000000 700.000000"
 preserveAspectRatio="xMidYMid meet">
<metadata>
Created by potrace 1.14, written by Peter Selinger 2001-2017
</metadata>
<g transform="translate(0.000000,700.000000) scale(0.100000,-0.100000)"
fill="#000000" stroke="none">
<path d="M3215 6994 c-527 -52 -991 -193 -1418 -433 -575 -321 -1037 -783
-1359 -1358 -213 -382 -345 -781 -415 -1258 -14 -95 -18 -187 -18 -445 0 -348
7 -419 61 -695 198 -995 833 -1864 1731 -2366 381 -214 782 -346 1258 -416
152 -22 706 -25 855 -5 691 95 1270 339 1784 752 639 514 1087 1249 1240 2038
55 283 61 346 61 692 0 346 -6 409 -61 692 -148 762 -575 1482 -1179 1989
-517 433 -1119 699 -1800 795 -114 16 -633 28 -740 18z m1460 -2343 c77 -31
175 -127 210 -204 53 -120 53 -259 1 -372 -21 -47 -1146 -1986 -1241 -2140
-47 -75 -88 -105 -146 -105 -46 0 -101 35 -131 83 -81 130 -1254 2189 -1269
2227 -80 211 51 467 270 526 36 10 295 12 1146 11 l1100 -2 60 -24z"/>
<path d="M2460 4381 c-58 -14 -96 -63 -87 -114 4 -25 948 -1692 971 -1715 3
-3 6 409 6 916 l0 922 -432 -1 c-238 -1 -444 -4 -458 -8z"/>
<path d="M3650 3463 c0 -775 2 -924 13 -908 8 11 227 386 487 834 520 894 508
868 458 941 -14 20 -38 40 -58 47 -25 8 -160 12 -467 12 l-433 1 0 -927z"/>
</g>
</svg>
